<svg width="133" height="34" viewBox="0 0 133 34" fill="none" xmlns="http://www.w3.org/2000/svg">
<path d="M14.4 14.4C16.6 13.3 18 11.5 18 8.9C18 4.5 15 1.5 10.1 1.5H0.5V26H4.1V16.3H10.2C12.3 16.3 13.7 17.8 13.9 20L14.4 26H18L17.5 19.7C17.4 17.4 16.2 15.4 14.4 14.4ZM4.1 4.6H10C13.2 4.6 14.4 6.6 14.4 8.8C14.4 11 13.2 13.1 10 13.1H4.1V4.6ZM33.6 20.3C33.1 22.3 31.4 23.4 28.8 23.4C25.7 23.4 23.6 21.1 23.3 17.8H36.8C36.8 17.5 36.9 16.9 36.9 16.5C36.9 12 34 8.1 28.5 8.1C23.1 8.1 20 12.2 20 17.1C20 22 23.4 26.3 28.9 26.3C33.2 26.3 36.4 23.9 37.1 20.3H33.6ZM28.5 10.8C31.4 10.8 33.2 12.6 33.4 15.3H23.4C24 12.3 25.8 10.8 28.5 10.8ZM46.7 26.3C49 26.3 51.2 25.1 52.3 23.4V26H55.7V1H52.3V11C51.3 9.3 49.1 8.1 46.7 8.1C41.3 8.1 38.3 12 38.3 17.2C38.3 22.4 41.3 26.3 46.7 26.3ZM47.1 23.3C43.8 23.3 41.7 20.8 41.7 17.2C41.7 13.6 43.8 11.1 47.1 11.1C50.4 11.1 52.5 13.5 52.5 17.2C52.5 20.9 50.4 23.3 47.1 23.3ZM59.4 26H75V22.8H63.1V1.5H59.5V26H59.4ZM76.4 1V5.3H80.2V1H76.4ZM76.6 26H80V8.4H76.6V26ZM96.4 8.4V10.7C95.3 9.2 93.1 8.1 90.8 8.1C85.4 8.1 82.4 12 82.4 17.2C82.4 22.4 85.4 26.3 90.9 26.3C93.4 26.3 95.6 25.3 96.5 23.8V26.7C96.5 28.8 95 30.4 93 30.4H84.8V33.2H93.3C97.1 33.2 99.8 30.6 99.8 26.9V8.4H96.4ZM91.3 23.3C88 23.3 85.9 20.9 85.9 17.2C85.9 13.5 88 11.1 91.3 11.1C94.6 11.1 96.7 13.5 96.7 17.2C96.7 20.9 94.5 23.3 91.3 23.3ZM103.4 26H106.8V16.4C106.8 13.3 108.8 11.1 111.5 11.1C114 11.1 115.6 13 115.6 15.8V26H119V15.1C119 10.9 116.4 8 112.4 8C109.8 8 107.7 9.2 106.7 11.4V1H103.3V26H103.4ZM123.8 2.8V8.3H120.2V11.2H123.8V20.1C123.8 23.7 126.1 25.9 129.6 25.9H132.4V23H129.9C128.2 23 127.2 22 127.2 20.1V11.3H132.4V8.4H127.2V2.8H123.8Z" fill="black"/>
</svg>
